Coordinates
version=1
nRows=22
nColumns=24
inDegrees=yes

Units are S.I. units (second, meters, Newtons, ...)
Angles are in degrees.

endheader
time	pelvis_tilt	pelvis_list	pelvis_rotation	pelvis_tx	pelvis_ty	pelvis_tz	hip_flexion_r	hip_adduction_r	hip_rotation_r	knee_angle_r	ankle_angle_r	subtalar_angle_r	mtp_angle_r	hip_flexion_l	hip_adduction_l	hip_rotation_l	knee_angle_l	ankle_angle_l	subtalar_angle_l	mtp_angle_l	lumbar_extension	lumbar_bending	lumbar_rotation
      1.20016667	     -7.06922265	     -2.35541759	     -6.53502040	      0.07754582	      1.01746779	      0.34014323	    -10.78929829	      3.45982807	      1.28146361	    -10.70932516	     20.54863757	      3.92788173	      3.98610886	     36.46311693	     -6.16503216	     -2.59110366	     -9.40684078	     10.39914739	      6.71451219	      3.67138175	     -2.31925147	      6.80422692	      3.51907381
      1.20433333	     -7.06433971	     -2.27863219	     -6.63424327	      0.08388543	      1.01690795	      0.33966621	    -10.89540817	      3.24076180	      1.01999797	    -11.23036148	     20.50596242	      4.48813235	      4.26798021	     36.41174305	     -6.03146532	     -2.37481812	     -9.97263871	     10.06736347	      6.57222700	      3.76741296	     -2.24390178	      6.64425751	      3.63705380
      1.20850000	     -7.06756171	     -2.20000126	     -6.72939055	      0.09026129	      1.01639982	      0.33919241	    -11.00535065	      3.02654308	      0.86263454	    -11.71955730	     20.35159216	      4.84714653	      4.69137997	     36.36722188	     -5.89653076	     -2.17716234	    -10.54031307	      9.68317469	      6.41184293	      3.90204573	     -2.16066173	      6.48691938	      3.69562624
      1.21266667	     -7.07014632	     -2.11896023	     -6.82451276	      0.09666727	      1.01595189	      0.33870753	    -11.10306775	      2.80772172	      0.72139353	    -12.23169963	     20.14352785	      5.16947883	      5.27985045	     36.32010781	     -5.76184844	     -2.01084257	    -11.10926382	      9.26350376	      6.25440930	      4.07056840	     -2.08431660	      6.32981055	      3.74963022
      1.21683333	     -7.02793140	     -2.03993045	     -6.89646696	      0.10309754	      1.01564549	      0.33820403	    -11.26355458	      2.59347115	      0.63354594	    -12.69882419	     19.73448343	      5.28966449	      8.53196135	     36.22084039	     -5.61408842	     -1.81991461	    -11.66275723	      8.81117109	      6.05625752	      4.90636085	     -2.06464155	      6.16895947	      3.71500394
      1.22100000	     -7.07146360	     -1.96177358	     -7.00589087	      0.10955102	      1.01525197	      0.33775595	    -11.29709501	      2.38406167	      0.59941601	    -13.24425516	     19.44064451	      5.50793381	      8.58806596	     36.23647191	     -5.51158261	     -1.78452693	    -12.27890099	      8.34062919	      6.02439332	      4.90389713	     -1.92084954	      6.02019365	      3.77565973
      1.22516667	     -7.06171908	     -1.85738471	     -7.08550518	      0.11602465	      1.01498402	      0.33720342	    -11.34851539	      2.12905751	      0.40991998	    -13.86278271	     19.17317507	      5.87594606	      8.75184368	     36.19045348	     -5.35368264	     -1.68913369	    -12.87888222	      7.86116062	      5.79716111	      4.90673740	     -1.83350670	      5.83354297	      3.84032959
      1.22933333	     -7.00666254	     -1.74659456	     -7.13986110	      0.12251045	      1.01487017	      0.33660866	    -11.44810336	      1.86659656	      0.23940864	    -14.46631782	     18.74333112	      6.10924057	     10.20608361	     36.08009709	     -5.16553200	     -1.50690249	    -13.43745437	      7.34776359	      5.44060064	      4.97033159	     -1.81955681	      5.63441177	      3.81598730
      1.23350000	     -7.02131126	     -1.63165835	     -7.22894670	      0.12900683	      1.01469173	      0.33605366	    -11.42499039	      1.59679237	      0.08075249	    -15.16514918	     18.38165026	      6.45318733	     10.90977149	     36.07392686	     -5.01715412	     -1.48587582	    -14.07088164	      6.85810479	      5.26048331	      4.96750178	     -1.70259698	      5.44059064	      3.88778792
      1.23766667	     -7.05001168	     -1.53607992	     -7.30636696	      0.13551749	      1.01456167	      0.33550568	    -11.39481435	      1.36480771	      0.03924771	    -15.83986669	     17.89502472	      6.59822096	     11.02647043	     36.09946542	     -4.89095731	     -1.47917420	    -14.74140690	      6.40169943	      5.13112638	      4.95603014	     -1.56759565	      5.27012340	      3.88191713
      1.24183333	     -7.05693758	     -1.40329355	     -7.36825074	      0.14203432	      1.01450330	      0.33485587	    -11.32524023	      1.07033330	     -0.17185415	    -16.63507618	     17.48425165	      6.92430968	     11.34195914	     36.09352087	     -4.70568469	     -1.40589505	    -15.39076499	      5.94834167	      4.79622489	      4.93258289	     -1.44476558	      5.07032962	      3.91238289
      1.24600000	     -7.03485508	     -1.28334191	     -7.41916153	      0.14855218	      1.01457364	      0.33421092	    -11.28984648	      0.79577537	     -0.30010104	    -17.39804185	     16.84925437	      7.06272442	     15.20763025	     36.06108951	     -4.53074775	     -1.34486865	    -16.05180459	      5.51954591	      4.54149171	      4.67757328	     -1.37531700	      4.87306665	      3.89153553
      1.25016667	     -6.98705300	     -1.16325423	     -7.46914955	      0.15508403	      1.01473156	      0.33358028	    -11.26104198	      0.52140891	     -0.40764775	    -18.20338755	     16.23298085	      7.18235889	     15.22778723	     36.02017727	     -4.36778622	     -1.37819235	    -16.76098092	      5.18986443	      4.42569732	      4.66728898	     -1.31485522	      4.67516661	      3.87750351
      1.25433333	     -6.98913492	     -0.99695865	     -7.50199976	      0.16160563	      1.01483393	      0.33284858	    -11.10580703	      0.18474479	     -0.64448874	    -19.14994650	     15.74435910	      7.56798723	     15.39439507	     36.01833425	     -4.13728572	     -1.30648490	    -17.42941283	      4.81897624	      4.10954764	      4.63421385	     -1.20913698	      4.40648662	      3.90007078
      1.25850000	     -6.93910018	     -0.84807639	     -7.53251167	      0.16811060	      1.01510710	      0.33212854	    -11.00240480	     -0.13094693	     -0.80628130	    -20.07644886	     15.04395934	      7.72529256	     18.11365358	     35.95694717	     -3.92080855	     -1.25072208	    -18.09629170	      4.47564966	      3.81727856	      4.18941347	     -1.16828114	      4.17248321	      3.86745477
      1.26266667	     -6.90187154	     -0.70346469	     -7.54176135	      0.17463967	      1.01538665	      0.33140022	    -10.86723938	     -0.43189352	     -0.95704086	    -21.04020404	     14.33726104	      7.88486674	     18.14922285	     35.92467434	     -3.71010022	     -1.24510216	    -18.79988605	      4.27310745	      3.72012857	      4.17758371	     -1.09850446	      3.91823736	      3.85101655
      1.26683333	     -6.86378636	     -0.53059635	     -7.55102239	      0.18111971	      1.01568674	      0.33060197	    -10.66208335	     -0.78430726	     -1.20153095	    -22.13605177	     13.73500348	      8.17451647	     18.30718826	     35.87678478	     -3.45957233	     -1.20721231	    -19.46405272	      4.03515356	      3.48023026	      4.13975121	     -1.02814993	      3.66270829	      3.85258347
      1.27100000	     -6.80704968	     -0.35857570	     -7.54547820	      0.18758990	      1.01607096	      0.32980116	    -10.46093566	     -1.13004064	     -1.41147999	    -23.24644018	     13.03177279	      8.38049454	     18.56018373	     35.79804640	     -3.20059522	     -1.16156597	    -20.10664730	      3.83595174	      3.27120321	      4.08046584	     -0.98400150	      3.39398216	      3.83290914
      1.27516667	     -6.74296184	     -0.18426310	     -7.52871765	      0.19402838	      1.01649916	      0.32898057	    -10.23550855	     -1.47837201	     -1.62067920	    -24.40710583	     12.29262180	      8.56173329	     18.89671951	     35.70209572	     -2.93217921	     -1.12261950	    -20.72537588	      3.67424189	      3.09704829	      4.00143730	     -0.94921531	      3.11805346	      3.80785912
      1.27933333	     -6.63295466	     -0.01469130	     -7.49984656	      0.20042409	      1.01705839	      0.32815670	    -10.04476194	     -1.81801804	     -1.78497353	    -25.56738385	     11.40574626	      8.57827067	     22.34546190	     35.53776309	     -2.64880406	     -1.03927906	    -21.30696469	      3.56770555	      2.84651856	      3.20183583	     -0.99067296	      2.82375816	      3.77419677
      1.28350000	     -6.57053185	      0.13139506	     -7.46394537	      0.20677534	      1.01753860	      0.32733733	     -9.76325565	     -2.12475734	     -1.95276873	    -26.80830228	     10.57125696	      8.68930012	     22.36925159	     35.43675092	     -2.40791982	     -1.04845448	    -21.91107289	      3.52039636	      2.84688735	      3.19197504	     -0.96901492	      2.57596783	      3.72873562
      1.28766667	     -6.50719884	      0.31561999	     -7.42020540	      0.21308828	      1.01803121	      0.32646947	     -9.42920264	     -2.48719881	     -2.18109000	    -28.14333359	      9.81491742	      8.84907192	     22.47119637	     35.30447877	     -2.11147437	     -1.01645072	    -22.44082066	      3.44511610	      2.70003185	      3.15467073	     -0.94127131	      2.29768171	      3.69992742
